<svg id="visual" viewBox="0 0 900 600" width="900" height="600" xmlns="http://www.w3.org/2000/svg" xmlns:xlink="http://www.w3.org/1999/xlink" version="1.1">
<path d="M0 79L15 88C30 97 60 115 90 121C120 127 150 121 180 112C210 103 240 91 270 85C300 79 330 79 360 78C390 77 420 75 450 95C480 115 510 157 540 162C570 167 600 135 630 132C660 129 690 155 720 167C750 179 780 177 810 178C840 179 870 183 885 185L900 187L900 0L885 0C870 0 840 0 810 0C780 0 750 0 720 0C690 0 660 0 630 0C600 0 570 0 540 0C510 0 480 0 450 0C420 0 390 0 360 0C330 0 300 0 270 0C240 0 210 0 180 0C150 0 120 0 90 0C60 0 30 0 15 0L0 0Z" fill="#d2e2f8"></path>
<path d="M0 151L15 162C30 173 60 195 90 203C120 211 150 205 180 193C210 181 240 163 270 151C300 139 330 133 360 144C390 155 420 183 450 218C480 253 510 295 540 297C570 299 600 261 630 260C660 259 690 295 720 293C750 291 780 251 810 239C840 227 870 243 885 251L900 259L900 185L885 183C870 181 840 177 810 176C780 175 750 177 720 165C690 153 660 127 630 130C600 133 570 165 540 160C510 155 480 113 450 93C420 73 390 75 360 76C330 77 300 77 270 83C240 89 210 101 180 110C150 119 120 125 90 119C60 113 30 95 15 86L0 77Z" fill="#ccddf7"></path>
<path d="M0 181L15 195C30 209 60 237 90 251C120 265 150 265 180 259C210 253 240 241 270 233C300 225 330 221 360 232C390 243 420 269 450 298C480 327 510 359 540 362C570 365 600 339 630 333C660 327 690 341 720 337C750 333 780 311 810 309C840 307 870 325 885 334L900 343L900 257L885 249C870 241 840 225 810 237C780 249 750 289 720 291C690 293 660 257 630 258C600 259 570 297 540 295C510 293 480 251 450 216C420 181 390 153 360 142C330 131 300 137 270 149C240 161 210 179 180 191C150 203 120 209 90 201C60 193 30 171 15 160L0 149Z" fill="#c5d9f5"></path><path d="M0 253L15 260C30 267 60 281 90 294C120 307 150 319 180 315C210 311 240 291 270 284C300 277 330 283 360 290C390 297 420 305 450 333C480 361 510 409 540 413C570 417 600 377 630 370C660 363 690 389 720 387C750 385 780 355 810 351C840 347 870 369 885 380L900 391L900 341L885 332C870 323 840 305 810 307C780 309 750 331 720 335C690 339 660 325 630 331C600 337 570 363 540 360C510 357 480 325 450 296C420 267 390 241 360 230C330 219 300 223 270 231C240 239 210 251 180 257C150 263 120 263 90 249C60 235 30 207 15 193L0 179Z" fill="#bfd4f4"></path><path d="M0 283L15 298C30 313 60 343 90 361C120 379 150 385 180 375C210 365 240 339 270 330C300 321 330 329 360 336C390 343 420 349 450 378C480 407 510 459 540 460C570 461 600 411 630 407C660 403 690 445 720 449C750 453 780 419 810 413C840 407 870 429 885 440L900 451L900 389L885 378C870 367 840 345 810 349C780 353 750 383 720 385C690 387 660 361 630 368C600 375 570 415 540 411C510 407 480 359 450 331C420 303 390 295 360 288C330 281 300 275 270 282C240 289 210 309 180 313C150 317 120 305 90 292C60 279 30 265 15 258L0 251Z" fill="#b7cef3"></path><path d="M0 559L15 552C30 545 60 531 90 527C120 523 150 529 180 529C210 529 240 523 270 520C300 517 330 517 360 524C390 531 420 545 450 554C480 563 510 567 540 557C570 547 600 523 630 522C660 521 690 543 720 549C750 555 780 545 810 543C840 541 870 547 885 550L900 553L900 449L885 438C870 427 840 405 810 411C780 417 750 451 720 447C690 443 660 401 630 405C600 409 570 459 540 458C510 457 480 405 450 376C420 347 390 341 360 334C330 327 300 319 270 328C240 337 210 363 180 373C150 383 120 377 90 359C60 341 30 311 15 296L0 281Z" fill="#afc9f1"></path><path d="M0 601L15 601C30 601 60 601 90 601C120 601 150 601 180 601C210 601 240 601 270 601C300 601 330 601 360 601C390 601 420 601 450 601C480 601 510 601 540 601C570 601 600 601 630 601C660 601 690 601 720 601C750 601 780 601 810 601C840 601 870 601 885 601L900 601L900 551L885 548C870 545 840 539 810 541C780 543 750 553 720 547C690 541 660 519 630 520C600 521 570 545 540 555C510 565 480 561 450 552C420 543 390 529 360 522C330 515 300 515 270 518C240 521 210 527 180 527C150 527 120 521 90 525C60 529 30 543 15 550L0 557Z" fill="#a7c3f0"></path></svg>